<svg viewBox="0 0 3320 2444" xmlns="http://www.w3.org/2000/svg" role="img" aria-label="ROGUE"><g transform="translate(963,0)"><circle cx="1191.33" cy="697.20" r="406.14" fill="none" stroke="#ff003c" stroke-width="16.92" opacity="0.18"/><circle cx="1191.33" cy="697.20" r="263.99" fill="none" stroke="#ff003c" stroke-width="20.31" opacity="0.38"/><rect x="0.00" y="0.00" width="406.14" height="406.14" rx="74.46" fill="#0e2a1e" opacity="1"/><rect x="494.13" y="0.00" width="406.14" height="406.14" rx="74.46" fill="#00ff88" opacity="0.82"/><rect x="988.26" y="0.00" width="406.14" height="406.14" rx="74.46" fill="#0e2a1e" opacity="1"/><rect x="0.00" y="494.13" width="406.14" height="406.14" rx="74.46" fill="#0e2a1e" opacity="1"/><rect x="494.13" y="494.13" width="406.14" height="406.14" rx="74.46" fill="#00ff88" opacity="1"/><rect x="988.26" y="494.13" width="406.14" height="406.14" rx="74.46" fill="#ff003c" opacity="1"/><rect x="0.00" y="988.26" width="406.14" height="406.14" rx="74.46" fill="#00ff88" opacity="0.82"/><rect x="494.13" y="988.26" width="406.14" height="406.14" rx="74.46" fill="#0e2a1e" opacity="1"/><rect x="988.26" y="988.26" width="406.14" height="406.14" rx="74.46" fill="#0e2a1e" opacity="1"/></g><g transform="translate(0,1744)"><g fill="#00ff88"><g transform="translate(0.0,700) scale(1,-1)"><path d="M62 0V710H291Q406 710 470.5 652.5Q535 595 535 497Q535 432 501.0 387.5Q467 343 415 327Q469 317 496.5 286.0Q524 255 529 198L546 0H402L390 160Q385 220 361.5 239.0Q338 258 281 258H204V0ZM204 386H286Q336 386 362.5 411.5Q389 437 389 484Q389 531 362.5 556.5Q336 582 286 582H204Z"/></g><g transform="translate(680.0,700) scale(1,-1)"><path d="M300 -16Q171 -16 101.5 80.0Q32 176 32 354Q32 533 101.5 629.5Q171 726 300 726Q429 726 498.5 629.5Q568 533 568 354Q568 176 498.5 80.0Q429 -16 300 -16ZM300 110Q360 110 391.0 168.5Q422 227 422 354Q422 481 391.0 540.5Q360 600 300 600Q240 600 209.0 540.5Q178 481 178 354Q178 227 209.0 168.5Q240 110 300 110Z"/></g><g transform="translate(1360.0,700) scale(1,-1)"><path d="M302 -16Q221 -16 160.5 27.5Q100 71 66.0 153.5Q32 236 32 354Q32 469 64.5 552.5Q97 636 157.5 681.0Q218 726 303 726Q408 726 473.5 661.0Q539 596 562 476L417 468Q393 598 304 598Q244 598 211.0 535.0Q178 472 178 354Q178 237 213.5 174.5Q249 112 313 112Q366 112 396.0 150.5Q426 189 428 258H302V369H560V0H465L462 78Q439 36 398.5 10.0Q358 -16 302 -16Z"/></g><g transform="translate(2040.0,700) scale(1,-1)"><path d="M300 -16Q183 -16 118.5 51.0Q54 118 54 246V711H196V234Q196 174 223.0 142.0Q250 110 300 110Q350 110 377.0 142.0Q404 174 404 234V711H546V246Q546 118 481.5 51.0Q417 -16 300 -16Z"/></g><g transform="translate(2720.0,700) scale(1,-1)"><path d="M84 0V710H528V582H226V419H516V293H226V128H536V0Z"/></g></g></g></svg>