<svg viewBox="0 0 1723 440" xmlns="http://www.w3.org/2000/svg" role="img" aria-label="ROGUE"><g transform="translate(40,40) scale(0.5070422535211268) translate(0,710) scale(1,-1)" fill="#00ff88"><path transform="translate(0,0)" d="M62 0V710H291Q406 710 470.5 652.5Q535 595 535 497Q535 444 513.0 405.0Q491 366 453.0 344.0Q415 322 370 318L366 331Q445 330 484.0 298.5Q523 267 529 198L546 0H402L390 160Q387 200 376.0 221.0Q365 242 342.0 250.0Q319 258 281 258H204V0ZM204 386H286Q336 386 362.5 412.0Q389 438 389 484Q389 531 362.5 556.5Q336 582 286 582H204Z"/><path transform="translate(660,0)" d="M300 -16Q214 -16 154.5 27.0Q95 70 63.5 152.5Q32 235 32 354Q32 473 63.5 556.0Q95 639 154.5 682.5Q214 726 300 726Q386 726 446.0 682.5Q506 639 537.0 556.0Q568 473 568 354Q568 235 537.0 152.5Q506 70 446.0 27.0Q386 -16 300 -16ZM300 110Q340 110 367.0 135.5Q394 161 408.0 215.0Q422 269 422 354Q422 439 408.0 493.5Q394 548 367.0 574.0Q340 600 300 600Q261 600 233.5 574.0Q206 548 192.0 493.5Q178 439 178 354Q178 269 192.0 215.0Q206 161 233.5 135.5Q261 110 300 110Z"/><path transform="translate(1320,0)" d="M302 -16Q221 -16 160.5 27.5Q100 71 66.0 153.5Q32 236 32 354Q32 469 64.5 552.5Q97 636 157.5 681.0Q218 726 303 726Q374 726 426.0 697.0Q478 668 512.5 612.5Q547 557 562 476L417 468Q406 532 377.5 565.0Q349 598 304 598Q264 598 236.0 570.0Q208 542 193.0 487.5Q178 433 178 354Q178 276 194.0 222.0Q210 168 240.0 140.0Q270 112 313 112Q349 112 374.0 129.5Q399 147 413.0 179.5Q427 212 428 258H302V369H560V0H465L459 154L490 171Q485 120 461.5 77.5Q438 35 398.0 9.5Q358 -16 302 -16Z"/><path transform="translate(1980,0)" d="M300 -16Q183 -16 118.5 51.5Q54 119 54 246V711H196V234Q196 174 223.0 142.0Q250 110 300 110Q350 110 377.0 142.0Q404 174 404 234V711H546V246Q546 119 481.5 51.5Q417 -16 300 -16Z"/><path transform="translate(2640,0)" d="M84 0V710H528V582H226V419H516V293H226V128H536V0Z"/></g></svg>